<svg width="13" height="16" viewBox="0 0 13 16" fill="none" xmlns="http://www.w3.org/2000/svg">
<path d="M8.02283 0L8.00478 0.0191769H0V16H11.0274V11.7406H10.0245V14.9346H1.00285V1.08457H7.03603L7.03101 4.28073H11.0274V3.21534H11.0174L8.02283 0ZM12.2128 5.38341L13 6.21974L12.4745 6.778L11.6822 5.947L12.2128 5.38341ZM2.0017 6.41364V7.47902H8.01882V6.41364H2.0017ZM10.9782 6.70875L11.7635 7.53123L8.12613 11.3954L7.33889 10.5569L10.9782 6.70875ZM2.0017 8.54441V9.6098H6.01311V8.54441H2.0017ZM2.0017 10.6752V11.7406H5.01026V10.6752H2.0017ZM6.77328 11.4636L7.2727 11.992L6.52457 12.2584L6.77328 11.4636ZM2.0017 12.806V13.8714H4.01342V12.806H2.0017Z" fill="white"/>
</svg>
