<?xml version="1.0" encoding="UTF-8"?>
<svg xmlns="http://www.w3.org/2000/svg" xmlns:xlink="http://www.w3.org/1999/xlink" width="18px" height="18px" viewBox="0 0 18 18" version="1.1">
<g id="surface1">
<path style=" stroke:none;fill-rule:nonzero;fill:rgb(98.039216%,99.215686%,96.470588%);fill-opacity:1;" d="M 9 1.125 L 10.761719 2.476562 L 12.9375 2.175781 L 13.761719 4.238281 L 15.824219 5.0625 L 15.523438 7.238281 L 16.875 9 L 15.523438 10.761719 L 15.824219 12.9375 L 13.761719 13.761719 L 12.9375 15.824219 L 10.761719 15.523438 L 9 16.875 L 7.238281 15.523438 L 5.0625 15.824219 L 4.238281 13.761719 L 2.175781 12.9375 L 2.476562 10.761719 L 1.125 9 L 2.476562 7.238281 L 2.175781 5.0625 L 4.238281 4.238281 L 5.0625 2.175781 L 7.238281 2.476562 Z M 9 1.125 "/>
<path style=" stroke:none;fill-rule:nonzero;fill:rgb(43.137255%,62.7451%,27.450982%);fill-opacity:1;" d="M 12.976562 5.476562 L 7.875 10.574219 L 5.773438 8.476562 L 4.726562 9.523438 L 7.875 12.675781 L 14.023438 6.523438 Z M 12.976562 5.476562 "/>
</g>
</svg>
