<svg width="19" height="16" viewBox="0 0 19 16" fill="none" xmlns="http://www.w3.org/2000/svg">
<path d="M18.0467 3.13426e-07H0.203289C0.176609 -4.65749e-05 0.150182 0.00516782 0.12552 0.0153451C0.100858 0.0255224 0.0784452 0.0404629 0.0595634 0.0593115C0.0406817 0.0781602 0.0257019 0.100547 0.0154813 0.125191C0.00526074 0.149835 -4.12022e-08 0.176253 0 0.202932V15.2991C-4.12022e-08 15.3258 0.00526074 15.3522 0.0154813 15.3768C0.0257019 15.4015 0.0406817 15.4238 0.0595634 15.4427C0.0784452 15.4615 0.100858 15.4765 0.12552 15.4867C0.150182 15.4968 0.176609 15.502 0.203289 15.502H18.0467C18.1005 15.502 18.1521 15.4806 18.1902 15.4426C18.2282 15.4045 18.2496 15.3529 18.2496 15.2991V0.202932C18.2496 0.149111 18.2282 0.0974949 18.1902 0.0594378C18.1521 0.0213807 18.1005 3.13426e-07 18.0467 3.13426e-07ZM0.405507 0.405864H2.67663V15.0979H0.405507V0.405864ZM17.8455 15.0961H3.0825V0.405864H17.8441L17.8455 15.0961Z" fill="white"/>
<path d="M3.75299 3.33711H6.46708C6.49373 3.33711 6.52011 3.33186 6.54473 3.32167C6.56935 3.31147 6.59173 3.29652 6.61057 3.27768C6.62941 3.25883 6.64436 3.23646 6.65456 3.21184C6.66476 3.18722 6.67001 3.16083 6.67001 3.13418V1.37163C6.67005 1.34497 6.66484 1.31856 6.65466 1.29392C6.64447 1.26928 6.62953 1.24689 6.61067 1.22803C6.59182 1.20918 6.56943 1.19423 6.54479 1.18405C6.52015 1.17387 6.49374 1.16865 6.46708 1.1687H3.75299C3.72633 1.16865 3.69992 1.17387 3.67528 1.18405C3.65064 1.19423 3.62825 1.20918 3.6094 1.22803C3.59054 1.24689 3.5756 1.26928 3.56541 1.29392C3.55523 1.31856 3.55002 1.34497 3.55006 1.37163V3.13418C3.55006 3.16083 3.55531 3.18722 3.56551 3.21184C3.57571 3.23646 3.59066 3.25883 3.6095 3.27768C3.62834 3.29652 3.65072 3.31147 3.67534 3.32167C3.69996 3.33186 3.72635 3.33711 3.75299 3.33711ZM3.95557 1.57421H6.26628V2.93125H3.95557V1.57421ZM7.2196 3.33711H9.93404C9.98786 3.33711 10.0395 3.31573 10.0775 3.27768C10.1156 3.23962 10.137 3.188 10.137 3.13418V1.37163C10.137 1.34497 10.1318 1.31856 10.1216 1.29392C10.1114 1.26928 10.0965 1.24689 10.0776 1.22803C10.0588 1.20918 10.0364 1.19423 10.0118 1.18405C9.98711 1.17387 9.9607 1.16865 9.93404 1.1687H7.2196C7.19297 1.1687 7.1666 1.17395 7.142 1.18416C7.11739 1.19436 7.09505 1.20931 7.07623 1.22816C7.05742 1.24701 7.0425 1.26938 7.03234 1.294C7.02218 1.31862 7.01698 1.345 7.01702 1.37163V3.13418C7.01698 3.16081 7.02218 3.18719 7.03234 3.21181C7.0425 3.23643 7.05742 3.25881 7.07623 3.27765C7.09505 3.2965 7.11739 3.31146 7.142 3.32166C7.1666 3.33186 7.19297 3.33711 7.2196 3.33711ZM7.42253 1.57421H9.73146V2.93125H7.42253V1.57421ZM10.6887 3.33711H13.4031C13.4298 3.33711 13.4561 3.33186 13.4807 3.32166C13.5053 3.31146 13.5277 3.2965 13.5465 3.27765C13.5653 3.25881 13.5802 3.23643 13.5904 3.21181C13.6006 3.18719 13.6058 3.16081 13.6057 3.13418V1.37163C13.6058 1.345 13.6006 1.31862 13.5904 1.294C13.5802 1.26938 13.5653 1.24701 13.5465 1.22816C13.5277 1.20931 13.5053 1.19436 13.4807 1.18416C13.4561 1.17395 13.4298 1.1687 13.4031 1.1687H10.6887C10.662 1.16865 10.6356 1.17387 10.611 1.18405C10.5863 1.19423 10.564 1.20918 10.5451 1.22803C10.5262 1.24689 10.5113 1.26928 10.5011 1.29392C10.4909 1.31856 10.4857 1.34497 10.4858 1.37163V3.13418C10.4858 3.16083 10.491 3.18722 10.5012 3.21184C10.5114 3.23646 10.5264 3.25883 10.5452 3.27768C10.5641 3.29652 10.5864 3.31147 10.611 3.32167C10.6357 3.33186 10.6621 3.33711 10.6887 3.33711ZM10.8913 1.57421H13.2002V2.93125H10.8895L10.8913 1.57421ZM14.1539 3.33711H16.868C16.9218 3.33711 16.9734 3.31573 17.0115 3.27768C17.0495 3.23962 17.0709 3.188 17.0709 3.13418V1.37163C17.0709 1.34497 17.0657 1.31856 17.0555 1.29392C17.0454 1.26928 17.0304 1.24689 17.0116 1.22803C16.9927 1.20918 16.9703 1.19423 16.9457 1.18405C16.921 1.17387 16.8946 1.16865 16.868 1.1687H14.1539C14.1001 1.1687 14.0484 1.19008 14.0104 1.22814C13.9723 1.2662 13.9509 1.31781 13.9509 1.37163V3.13418C13.9509 3.16083 13.9562 3.18722 13.9664 3.21184C13.9766 3.23646 13.9915 3.25883 14.0104 3.27768C14.0292 3.29652 14.0516 3.31147 14.0762 3.32167C14.1008 3.33186 14.1272 3.33711 14.1539 3.33711ZM14.3568 1.57421H16.6654V2.93125H14.3568V1.57421ZM3.75299 14.4588H9.81099C9.83763 14.4588 9.864 14.4535 9.8886 14.4433C9.9132 14.4331 9.93555 14.4182 9.95436 14.3993C9.97318 14.3805 9.98809 14.3581 9.99825 14.3335C10.0084 14.3089 10.0136 14.2825 10.0136 14.2558V5.7081C10.0136 5.68147 10.0084 5.65509 9.99825 5.63047C9.98809 5.60585 9.97318 5.58348 9.95436 5.56463C9.93555 5.54578 9.9132 5.53082 9.8886 5.52062C9.864 5.51042 9.83763 5.50517 9.81099 5.50517H3.75299C3.69917 5.50517 3.64756 5.52655 3.6095 5.56461C3.57144 5.60266 3.55006 5.65428 3.55006 5.7081V14.2558C3.55006 14.3097 3.57144 14.3613 3.6095 14.3993C3.64756 14.4374 3.69917 14.4588 3.75299 14.4588ZM3.95557 5.91103H9.60806V14.0529H3.95557V5.91103ZM16.8755 5.5041H10.6373C10.5835 5.5041 10.5319 5.52548 10.4938 5.56354C10.4558 5.60159 10.4344 5.65321 10.4344 5.70703V9.9818C10.4344 10.0085 10.4396 10.0349 10.4498 10.0595C10.4599 10.0842 10.4749 10.1065 10.4937 10.1254C10.5126 10.1442 10.535 10.1592 10.5596 10.1694C10.5843 10.1796 10.6107 10.1848 10.6373 10.1847H16.8755C16.9021 10.1848 16.9285 10.1796 16.9532 10.1694C16.9778 10.1592 17.0002 10.1442 17.019 10.1254C17.0379 10.1065 17.0528 10.0842 17.063 10.0595C17.0732 10.0349 17.0784 10.0085 17.0784 9.9818V5.7081C17.0785 5.68136 17.0734 5.65486 17.0632 5.63011C17.0531 5.60537 17.0382 5.58287 17.0193 5.56391C17.0005 5.54496 16.978 5.52991 16.9534 5.51965C16.9287 5.50938 16.9022 5.5041 16.8755 5.5041ZM16.6729 9.77815H10.8403V5.91103H16.6729V9.77815ZM16.8755 10.5132H10.6373C10.6107 10.5132 10.5843 10.5184 10.5596 10.5286C10.535 10.5387 10.5126 10.5537 10.4937 10.5725C10.4749 10.5914 10.4599 10.6138 10.4498 10.6384C10.4396 10.6631 10.4344 10.6895 10.4344 10.7161V14.268C10.4344 14.2946 10.4396 14.321 10.4498 14.3457C10.4599 14.3703 10.4749 14.3927 10.4937 14.4116C10.5126 14.4304 10.535 14.4454 10.5596 14.4556C10.5843 14.4657 10.6107 14.471 10.6373 14.4709H16.8755C16.9021 14.471 16.9285 14.4657 16.9532 14.4556C16.9778 14.4454 17.0002 14.4304 17.019 14.4116C17.0379 14.3927 17.0528 14.3703 17.063 14.3457C17.0732 14.321 17.0784 14.2946 17.0784 14.268V10.7161C17.0784 10.6895 17.0732 10.6631 17.063 10.6384C17.0528 10.6138 17.0379 10.5914 17.019 10.5725C17.0002 10.5537 16.9778 10.5387 16.9532 10.5286C16.9285 10.5184 16.9021 10.5132 16.8755 10.5132ZM16.6729 14.0654H10.8403V10.9187H16.6729V14.0654ZM3.75299 4.72554H14.7284C14.7807 4.72334 14.8302 4.70102 14.8664 4.66324C14.9026 4.62546 14.9229 4.57513 14.9229 4.52278C14.9229 4.47044 14.9026 4.42011 14.8664 4.38233C14.8302 4.34455 14.7807 4.32223 14.7284 4.32003H3.75299C3.72565 4.31888 3.69836 4.32328 3.67276 4.33295C3.64716 4.34262 3.62379 4.35737 3.60403 4.37631C3.58428 4.39525 3.56857 4.41799 3.55783 4.44316C3.54709 4.46834 3.54156 4.49542 3.54156 4.52278C3.54156 4.55015 3.54709 4.57723 3.55783 4.6024C3.56857 4.62758 3.58428 4.65031 3.60403 4.66926C3.62379 4.6882 3.64716 4.70295 3.67276 4.71262C3.69836 4.72229 3.72565 4.72669 3.75299 4.72554ZM15.8469 4.52261C15.846 4.48358 15.8336 4.4457 15.8112 4.41369C15.7889 4.38169 15.7576 4.357 15.7212 4.34271C15.6849 4.32842 15.6452 4.32517 15.607 4.33337C15.5688 4.34156 15.5339 4.36084 15.5067 4.38878C15.4794 4.41673 15.461 4.45209 15.4538 4.49045C15.4465 4.52881 15.4508 4.56845 15.466 4.60441C15.4812 4.64036 15.5066 4.67104 15.5392 4.69259C15.5717 4.71414 15.6099 4.7256 15.6489 4.72554C15.6753 4.72521 15.7013 4.7197 15.7255 4.70933C15.7497 4.69895 15.7716 4.68392 15.7899 4.66507C15.8083 4.64623 15.8228 4.62395 15.8326 4.5995C15.8424 4.57506 15.8472 4.54893 15.8469 4.52261Z" fill="white"/>
<path d="M12.044 8.89232C12.0944 8.8923 12.1431 8.87363 12.1806 8.83989L13.3543 7.77316L13.7045 8.35735C13.7204 8.384 13.7423 8.40663 13.7683 8.42352C13.7944 8.4404 13.824 8.45108 13.8548 8.45473C13.8856 8.45838 13.9169 8.45491 13.9462 8.44458C13.9755 8.43425 14.002 8.41734 14.0237 8.39515L15.2862 7.10338C15.305 7.08434 15.3198 7.0618 15.3298 7.03704C15.3398 7.01228 15.3449 6.98579 15.3446 6.95908C15.3444 6.93237 15.339 6.90597 15.3285 6.88137C15.3181 6.85678 15.303 6.83448 15.2839 6.81574C15.2649 6.79701 15.2423 6.78221 15.2176 6.77219C15.1928 6.76216 15.1663 6.75712 15.1396 6.75733C15.1129 6.75755 15.0865 6.76302 15.0619 6.77344C15.0373 6.78386 15.015 6.79902 14.9963 6.81806L13.9174 7.92188L13.5754 7.34911C13.56 7.32332 13.539 7.30129 13.514 7.28459C13.4891 7.26788 13.4607 7.25694 13.431 7.25254C13.4013 7.24813 13.3709 7.25039 13.3422 7.25913C13.3134 7.26788 13.287 7.28289 13.2648 7.3031L11.9074 8.53638C11.8758 8.56362 11.8534 8.59994 11.8432 8.64039C11.833 8.68083 11.8356 8.72343 11.8505 8.76237C11.8655 8.8013 11.8921 8.83468 11.9267 8.85794C11.9613 8.8812 12.0023 8.8932 12.044 8.89232ZM9.19506 12.952H8.47749V9.98187C8.47749 9.95524 8.47224 9.92887 8.46204 9.90427C8.45183 9.87967 8.43688 9.85732 8.41803 9.8385C8.39918 9.81969 8.37681 9.80478 8.35219 9.79462C8.32757 9.78446 8.30119 9.77925 8.27456 9.7793H7.17573C7.1491 9.77925 7.12272 9.78446 7.0981 9.79462C7.07348 9.80478 7.05111 9.81969 7.03226 9.8385C7.01341 9.85732 6.99846 9.87967 6.98825 9.90427C6.97805 9.92887 6.9728 9.95524 6.9728 9.98187V12.952H6.40894V7.82452C6.40894 7.79789 6.40369 7.77151 6.39349 7.74691C6.38328 7.72231 6.36833 7.69997 6.34948 7.68115C6.33063 7.66233 6.30826 7.64742 6.28364 7.63726C6.25902 7.6271 6.23264 7.6219 6.20601 7.62194H5.11003C5.0834 7.6219 5.05702 7.6271 5.0324 7.63726C5.00778 7.64742 4.98541 7.66233 4.96656 7.68115C4.94771 7.69997 4.93276 7.72231 4.92256 7.74691C4.91235 7.77151 4.9071 7.79789 4.9071 7.82452V12.952H4.22484C4.17102 12.952 4.1194 12.9734 4.08134 13.0115C4.04328 13.0495 4.0219 13.1011 4.0219 13.155C4.0219 13.2088 4.04328 13.2604 4.08134 13.2985C4.1194 13.3365 4.17102 13.3579 4.22484 13.3579H9.19506C9.24888 13.3579 9.3005 13.3365 9.33856 13.2985C9.37662 13.2604 9.398 13.2088 9.398 13.155C9.398 13.1011 9.37662 13.0495 9.33856 13.0115C9.3005 12.9734 9.24888 12.952 9.19506 12.952ZM7.37831 10.1848H8.0702V12.8322H7.37831V10.1848ZM5.31297 8.02745H6.00486V12.8322H5.31297V8.02745Z" fill="white"/>
</svg>
