<?xml version="1.0" encoding="UTF-8"?>
<svg xmlns="http://www.w3.org/2000/svg" xmlns:xlink="http://www.w3.org/1999/xlink" width="18px" height="18px" viewBox="0 0 18 18" version="1.1">
<defs>
<filter id="alpha" filterUnits="objectBoundingBox" x="0%" y="0%" width="100%" height="100%">
  <feColorMatrix type="matrix" in="SourceGraphic" values="0 0 0 0 1 0 0 0 0 1 0 0 0 0 1 0 0 0 1 0"/>
</filter>
<mask id="mask0">
  <g filter="url(#alpha)">
<rect x="0" y="0" width="18" height="18" style="fill:rgb(0%,0%,0%);fill-opacity:0.501961;stroke:none;"/>
  </g>
</mask>
<clipPath id="clip1">
  <rect x="0" y="0" width="18" height="18"/>
</clipPath>
<g id="surface5" clip-path="url(#clip1)">
<path style="fill:none;stroke-width:1.5;stroke-linecap:butt;stroke-linejoin:miter;stroke:rgb(94.509804%,95.294118%,97.254902%);stroke-opacity:1;stroke-miterlimit:4;" d="M 22 12 C 22 6.479167 17.520833 2 12 2 C 6.479167 2 2 6.479167 2 12 C 2 17.520833 6.479167 22 12 22 C 17.520833 22 22 17.520833 22 12 Z M 22 12 " transform="matrix(0.75,0,0,0.75,0,0)"/>
</g>
</defs>
<g id="surface1">
<use xlink:href="#surface5" mask="url(#mask0)"/>
<path style="fill:none;stroke-width:1.5;stroke-linecap:round;stroke-linejoin:miter;stroke:rgb(94.509804%,95.294118%,97.254902%);stroke-opacity:1;stroke-miterlimit:4;" d="M 14.5 9.5 L 9.5 14.5 M 9.5 9.5 L 14.5 14.5 " transform="matrix(0.75,0,0,0.75,0,0)"/>
</g>
</svg>
