<svg width="18" height="18" viewBox="0 0 18 18" fill="none" xmlns="http://www.w3.org/2000/svg">
<g clip-path="url(#clip0_59_958)">
<path d="M13.0605 16.6149C12.9727 16.7485 12.8285 16.8294 12.6703 16.8294H5.32969C5.17148 16.8294 5.02383 16.7485 4.93945 16.6149C4.85508 16.4849 4.84453 16.3231 4.9043 16.1825C5.08359 15.7817 5.48438 15.5251 5.92383 15.5251H6.80273V14.7517H11.2008V15.5251H12.0797C12.5191 15.5251 12.9164 15.7853 13.0992 16.1825C13.159 16.3231 13.1449 16.4884 13.0605 16.6149ZM5.86055 5.53369C5.61797 6.43721 4.78828 7.10518 3.81094 7.10518C2.64023 7.10166 1.6875 6.15244 1.6875 4.98174C1.6875 4.00088 2.35547 3.17471 3.25898 2.93213C3.23437 3.02705 3.24844 2.96377 3.24492 4.98174C3.24492 5.29111 3.49805 5.54424 3.80742 5.54424C5.81484 5.54072 5.76211 5.55127 5.86055 5.53369Z" fill="white"/>
<path d="M5.93086 4.98174C5.93086 5.08369 5.84648 5.16807 5.74453 5.16807H3.81094C3.70898 5.16807 3.62461 5.08369 3.62461 4.98174V3.04814C3.62461 2.94268 3.70898 2.86182 3.81094 2.86182C4.98164 2.86182 5.93086 3.81104 5.93086 4.98174ZM5.74453 8.24072H1.87383C1.77187 8.24072 1.6875 8.15635 1.6875 8.05439C1.6875 7.95244 1.77187 7.86807 1.87383 7.86807H5.74453C5.84648 7.86807 5.93086 7.95244 5.93086 8.05439C5.93086 8.15635 5.84648 8.24072 5.74453 8.24072ZM5.74453 9.34463H1.87383C1.77187 9.34463 1.6875 9.26025 1.6875 9.1583C1.6875 9.05635 1.77187 8.97197 1.87383 8.97197H5.74453C5.84648 8.97197 5.93086 9.05635 5.93086 9.1583C5.93086 9.26377 5.84648 9.34463 5.74453 9.34463ZM5.74453 10.4521H1.87383C1.77187 10.4521 1.6875 10.3677 1.6875 10.2657C1.6875 10.1638 1.77187 10.0794 1.87383 10.0794H5.74453C5.84648 10.0794 5.93086 10.1638 5.93086 10.2657C5.93086 10.3677 5.84648 10.4521 5.74453 10.4521ZM9.36562 7.33018V10.0759C9.36562 10.2833 9.19688 10.4521 8.98945 10.4521H8.20898C8.00156 10.4521 7.83281 10.2833 7.83281 10.0759V7.33018C7.83281 7.12275 7.99805 6.954 8.20898 6.954H8.98945C9.19688 6.954 9.36562 7.12275 9.36562 7.33018ZM11.6824 5.39658V10.0759C11.6824 10.2833 11.5137 10.4521 11.3063 10.4521H10.5258C10.3184 10.4521 10.1496 10.2833 10.1496 10.0759V5.39658C10.1496 5.18916 10.3148 5.02041 10.5258 5.02041H11.3063C11.5137 5.02041 11.6824 5.18916 11.6824 5.39658ZM13.9957 7.33018V10.0759C13.9957 10.2833 13.827 10.4521 13.6195 10.4521H12.8355C12.6281 10.4521 12.4594 10.2833 12.4594 10.0759V7.33018C12.4594 7.12275 12.6281 6.954 12.8355 6.954H13.6195C13.827 6.954 13.9957 7.12275 13.9957 7.33018ZM16.3125 6.18408V10.0759C16.3125 10.2833 16.1437 10.4521 15.9363 10.4521H15.1523C14.9449 10.4521 14.7762 10.2833 14.7762 10.0759V6.18408C14.7762 5.97666 14.9449 5.80791 15.1523 5.80791H15.9363C16.1437 5.80791 16.3125 5.97666 16.3125 6.18408Z" fill="white"/>
<path d="M13.2293 5.9872C13.1766 5.9872 13.1238 5.96259 13.0852 5.9204L10.8984 3.31884L8.7293 5.41415C8.65547 5.48446 8.53594 5.48446 8.46563 5.41063C8.39531 5.33681 8.39531 5.21727 8.46914 5.14696L10.7859 2.91103C10.8246 2.87587 10.8738 2.85478 10.9266 2.85829C10.9793 2.86181 11.0285 2.88642 11.0602 2.92509L13.2645 5.54774L15.4406 4.01142C15.525 3.95165 15.641 3.97274 15.7008 4.05712C15.7605 4.14149 15.7395 4.25751 15.6551 4.31728L13.3383 5.95556C13.3066 5.97665 13.268 5.9872 13.2293 5.9872ZM9 12.6282C8.85938 12.6282 8.74336 12.7442 8.74336 12.8849C8.74336 13.0255 8.85938 13.1415 9 13.1415C9.14063 13.1415 9.25664 13.0255 9.25664 12.8849C9.25664 12.7442 9.14063 12.6282 9 12.6282Z" fill="white"/>
<path d="M17.0613 1.17065H0.938672C0.418359 1.17065 0 1.58901 0 2.10581C0 2.40464 0 14.1574 0 13.4402C0 13.957 0.418359 14.3789 0.938672 14.3789H17.0648C17.5816 14.3789 18.0035 13.957 18.0035 13.4402C18.0035 12.0093 18.0035 3.52964 18.0035 2.10581C18 1.58901 17.5781 1.17065 17.0613 1.17065ZM9 13.5175C8.65195 13.5175 8.36719 13.2328 8.36719 12.8847C8.36719 12.5367 8.65195 12.2519 9 12.2519C9.34805 12.2519 9.63281 12.5367 9.63281 12.8847C9.63281 13.2328 9.34805 13.5175 9 13.5175ZM17.2512 11.3871H0.748828V2.10581C0.748828 2.00386 0.833203 1.91948 0.935156 1.91948H17.0613C17.1633 1.91948 17.2477 2.00386 17.2477 2.10581V11.3871H17.2512Z" fill="white"/>
</g>
<defs>
<clipPath id="clip0_59_958">
<rect width="18" height="18" fill="white"/>
</clipPath>
</defs>
</svg>
