<?xml version="1.0" encoding="UTF-8"?>
<svg xmlns="http://www.w3.org/2000/svg" xmlns:xlink="http://www.w3.org/1999/xlink" width="16px" height="16px" viewBox="0 0 16 16" version="1.1">
<g id="surface1">
<path style=" stroke:none;fill-rule:nonzero;fill:rgb(94.117647%,96.078432%,96.078432%);fill-opacity:1;" d="M 8 0 C 3.582031 0 0 3.582031 0 8 C 0 12.417969 3.582031 16 8 16 C 12.417969 16 16 12.417969 16 8 C 16 3.582031 12.417969 0 8 0 M 8 3 C 8.808594 2.972656 9.609375 3.144531 10.335938 3.5 L 3.5 10.335938 C 3.144531 9.609375 2.976562 8.808594 3 8 C 3 5.238281 5.238281 3 8 3 M 13 8 C 13 10.761719 10.761719 13 8 13 C 7.191406 13.027344 6.390625 12.855469 5.664062 12.5 L 12.5 5.664062 C 12.855469 6.386719 13.023438 7.191406 13 8 "/>
</g>
</svg>
