<svg width="18" height="18" viewBox="0 0 18 18" fill="none" xmlns="http://www.w3.org/2000/svg">
<path d="M9 18C13.9706 18 18 13.9706 18 9.00003C18 4.02947 13.9706 0 9 0C4.02944 0 0 4.02947 0 9.00003C0 13.9706 4.02944 18 9 18Z" fill="#3A6C87"/>
<path d="M11.5988 17.6079C11.8222 17.5434 12.043 17.4702 12.2608 17.3886C12.5405 17.2799 12.8146 17.1573 13.0821 17.0212C13.6172 16.7487 14.1237 16.4233 14.5941 16.0498C16.0147 14.9226 17.0617 13.3925 17.5978 11.6601L17.6124 11.6027L12.7001 6.69094V6.68981C12.7432 6.63579 12.7649 6.5678 12.7611 6.49881C12.7572 6.42982 12.7281 6.36466 12.6793 6.31575L11.6848 5.32181C11.6359 5.27285 11.5706 5.24365 11.5015 5.23981C11.4324 5.23597 11.3643 5.25775 11.3102 5.301L10.8771 5.64581L9.98269 4.75031C9.97508 4.68149 9.94234 4.6179 9.89076 4.57172C9.83918 4.52553 9.77237 4.5 9.70313 4.5H8.29688C8.22774 4.50013 8.16107 4.52573 8.1096 4.5719C8.05814 4.61808 8.02549 4.68159 8.01788 4.75031L7.91776 5.63344C7.73448 5.69252 7.55633 5.76645 7.38507 5.8545L6.68982 5.301C6.63576 5.25775 6.56765 5.23597 6.49853 5.23981C6.42941 5.24365 6.36413 5.27285 6.31519 5.32181L5.32069 6.31519C5.27203 6.36406 5.24303 6.42911 5.23919 6.49798C5.23535 6.56684 5.25695 6.63471 5.29988 6.68869L5.85451 7.38619C5.7667 7.55749 5.69296 7.73563 5.63401 7.91887L4.74919 8.01675C4.68029 8.02466 4.61673 8.05774 4.57074 8.10965C4.52475 8.16157 4.49955 8.22864 4.50001 8.298V9.70312C4.49983 9.77229 4.52515 9.83909 4.57112 9.89076C4.61708 9.94244 4.68048 9.97537 4.74919 9.98325L5.64469 10.8787L5.29988 11.3102C5.25664 11.3642 5.23485 11.4324 5.23869 11.5015C5.24253 11.5706 5.27173 11.6359 5.32069 11.6848L6.31519 12.6793C6.36427 12.7281 6.42963 12.7571 6.49874 12.7607C6.56786 12.7644 6.63589 12.7424 6.68982 12.699L11.5988 17.6079ZM7.48013 6.41812L8.03701 6.975C8.02407 6.98119 8.01226 6.9885 7.99988 6.99525L7.99201 6.99919L8.14219 6.93C8.15907 6.92437 7.46494 6.42712 7.48013 6.41812ZM6.43838 7.43344L6.99863 7.99369C6.99132 8.00831 6.98176 8.02237 6.97444 8.03756L7.10213 7.77544C7.11057 7.76081 6.43276 7.44919 6.43838 7.43344Z" fill="#2F4B6C"/>
<path d="M8.29688 4.5C8.22774 4.50013 8.16107 4.52573 8.1096 4.5719C8.05814 4.61808 8.02549 4.68159 8.01788 4.75031L7.91776 5.63344C7.73448 5.69252 7.55633 5.76645 7.38507 5.8545L6.68982 5.301C6.63576 5.25776 6.56765 5.23597 6.49853 5.23981C6.42941 5.24365 6.36413 5.27285 6.31519 5.32181L5.32069 6.31519C5.27203 6.36406 5.24303 6.42911 5.23919 6.49798C5.23535 6.56684 5.25695 6.63471 5.29988 6.68869L5.85451 7.38619C5.7667 7.55749 5.69296 7.73563 5.63401 7.91887L4.74919 8.01675C4.68029 8.02466 4.61673 8.05774 4.57074 8.10965C4.52474 8.16157 4.49955 8.22864 4.50001 8.298V9.70312C4.49983 9.77229 4.52515 9.83909 4.57112 9.89076C4.61708 9.94244 4.68048 9.97537 4.74919 9.98325L5.63232 10.0822C5.69194 10.2656 5.76619 10.4434 5.85451 10.6149L5.29988 11.3102C5.25664 11.3642 5.23485 11.4324 5.23869 11.5015C5.24253 11.5706 5.27173 11.6359 5.32069 11.6848L6.31519 12.6793C6.36427 12.7281 6.42963 12.7571 6.49874 12.7607C6.56786 12.7644 6.63589 12.7424 6.68982 12.699L7.38507 12.1455C7.55663 12.2333 7.73382 12.3069 7.91776 12.366L8.01788 13.2491C8.02536 13.3179 8.05796 13.3816 8.10943 13.4279C8.16091 13.4742 8.22765 13.4999 8.29688 13.5H9.70313C9.7721 13.4999 9.83863 13.4745 9.89006 13.4285C9.9415 13.3826 9.97427 13.3193 9.98213 13.2508L10.0823 12.3677C10.2656 12.3081 10.4434 12.2349 10.6149 12.1466L11.3102 12.7001C11.3643 12.7434 11.4324 12.7652 11.5015 12.7613C11.5706 12.7575 11.6359 12.7283 11.6848 12.6793L12.6793 11.6848C12.7283 11.6359 12.7575 11.5706 12.7613 11.5015C12.7652 11.4324 12.7434 11.3642 12.7001 11.3102L12.1455 10.6149C12.2333 10.4434 12.3069 10.2656 12.366 10.0822L13.2508 9.98325C13.3195 9.97537 13.3829 9.94244 13.4289 9.89076C13.4749 9.83909 13.5002 9.77229 13.5 9.70312V8.298C13.5002 8.22884 13.4749 8.16204 13.4289 8.11036C13.3829 8.05869 13.3195 8.02576 13.2508 8.01788L12.3677 7.91887C12.3082 7.73558 12.2339 7.55743 12.1455 7.38619L12.7001 6.68981C12.7431 6.63583 12.7647 6.56796 12.7608 6.4991C12.757 6.43024 12.728 6.36519 12.6793 6.31631L11.6848 5.32125C11.6359 5.27228 11.5706 5.24308 11.5015 5.23924C11.4324 5.2354 11.3643 5.25719 11.3102 5.30044L10.6149 5.85394C10.4437 5.76611 10.2655 5.69237 10.0823 5.63344L9.98213 4.75087C9.97465 4.68205 9.94206 4.6184 9.89058 4.57211C9.8391 4.52583 9.77236 4.50015 9.70313 4.5H8.29688ZM8.54719 5.0625H9.45169L9.54169 5.859C9.54805 5.91553 9.5714 5.96879 9.60866 6.01178C9.64592 6.05476 9.69533 6.08543 9.75038 6.09975C10.0204 6.1695 10.2791 6.27638 10.5193 6.41813C10.5684 6.44728 10.6252 6.4608 10.6822 6.45688C10.7392 6.45296 10.7936 6.43179 10.8383 6.39619L11.4643 5.89725L12.1039 6.53569L11.6049 7.16288C11.5694 7.2073 11.5482 7.26146 11.5441 7.3182C11.5399 7.37494 11.5531 7.4316 11.5819 7.48069C11.7236 7.72087 11.8311 7.98075 11.9014 8.25075C11.9158 8.3057 11.9465 8.35499 11.9895 8.39214C12.0325 8.42929 12.0857 8.45255 12.1421 8.45888L12.9375 8.54887V9.45281L12.1421 9.54281C12.0857 9.54913 12.0325 9.5724 11.9895 9.60955C11.9465 9.6467 11.9158 9.69599 11.9014 9.75094C11.8316 10.0209 11.7231 10.2797 11.5819 10.5204C11.5531 10.5695 11.5398 10.6261 11.5438 10.6828C11.5478 10.7396 11.5689 10.7938 11.6044 10.8382L12.1039 11.4654L11.4643 12.1039L10.8383 11.6049C10.7937 11.5692 10.7393 11.548 10.6823 11.544C10.6253 11.5399 10.5685 11.5534 10.5193 11.5824C10.2792 11.7246 10.0204 11.8325 9.75038 11.9031C9.69541 11.9173 9.64606 11.9479 9.60881 11.9908C9.57156 12.0337 9.54816 12.0868 9.54169 12.1432L9.45169 12.9375H8.54832L8.45832 12.1421C8.45196 12.0856 8.42861 12.0323 8.39135 11.9893C8.3541 11.9464 8.30468 11.9157 8.24963 11.9014C7.97976 11.8315 7.72095 11.7244 7.48069 11.583C7.43159 11.5538 7.37478 11.5403 7.3178 11.5442C7.26083 11.5482 7.2064 11.5693 7.16176 11.6049L6.53569 12.1039L5.89613 11.4654L6.39507 10.8382C6.4306 10.7938 6.45183 10.7397 6.45595 10.6829C6.46007 10.6262 6.44688 10.5695 6.41813 10.5204C6.2764 10.2802 6.16886 10.0214 6.09863 9.7515C6.08431 9.69645 6.05364 9.64704 6.01066 9.60978C5.96767 9.57252 5.91441 9.54917 5.85788 9.54281L5.06251 9.45281V8.54831L5.85788 8.45831C5.91441 8.45195 5.96767 8.4286 6.01066 8.39135C6.05364 8.35409 6.08431 8.30467 6.09863 8.24962C6.16838 7.97962 6.27694 7.72087 6.41813 7.48069C6.44696 7.43165 6.46024 7.37503 6.45622 7.31829C6.45221 7.26155 6.43108 7.20736 6.39563 7.16288L5.89557 6.53625L6.53626 5.89725L7.16232 6.39619C7.20691 6.43188 7.26131 6.45315 7.31828 6.45717C7.37525 6.46119 7.4321 6.44776 7.48126 6.41869C7.72139 6.27639 7.98019 6.16829 8.25019 6.0975C8.30508 6.08325 8.35438 6.05275 8.39162 6.00998C8.42886 5.96722 8.45231 5.9142 8.45888 5.85787L8.54719 5.0625ZM9.00001 6.75C7.76082 6.75 6.75001 7.76081 6.75001 9C6.75001 10.2392 7.76082 11.25 9.00001 11.25C10.2392 11.25 11.25 10.2392 11.25 9C11.25 7.76081 10.2392 6.75 9.00001 6.75ZM9.00001 7.3125C9.93544 7.3125 10.6875 8.06456 10.6875 9C10.6875 9.93544 9.93544 10.6875 9.00001 10.6875C8.06457 10.6875 7.31251 9.93544 7.31251 9C7.31251 8.06456 8.06457 7.3125 9.00001 7.3125Z" fill="white"/>
</svg>
