<?xml version="1.0" encoding="UTF-8"?>
<svg version="1.1" xmlns="http://www.w3.org/2000/svg" width="18" height="18">
<path d="M0 0 C-0.78707902 2.10588701 -1.57982626 4.20965616 -2.375 6.3125 C-3.03628906 8.07013672 -3.03628906 8.07013672 -3.7109375 9.86328125 C-5 13 -5 13 -7 16 C-7.66 16 -8.32 16 -9 16 C-9.4125 15.05125 -9.825 14.1025 -10.25 13.125 C-12.0040131 9.99283376 -12.70851757 9.13499394 -16 8 C-16 7.01 -16 6.02 -16 5 C-13.90163996 3.96728358 -11.79609109 2.94916283 -9.6875 1.9375 C-8.51574219 1.36902344 -7.34398437 0.80054687 -6.13671875 0.21484375 C-3 -1 -3 -1 0 0 Z " fill="#FFFFFF" transform="translate(17,1)"/>
</svg>
